<?xml version="1.0" encoding="UTF-8" standalone="no"?>
<!-- Created with Inkscape (http://www.inkscape.org/) -->

<svg
   xmlns:dc="http://purl.org/dc/elements/1.1/"
   xmlns:cc="http://creativecommons.org/ns#"
   xmlns:rdf="http://www.w3.org/1999/02/22-rdf-syntax-ns#"
   xmlns:svg="http://www.w3.org/2000/svg"
   xmlns="http://www.w3.org/2000/svg"
   xmlns:sodipodi="http://sodipodi.sourceforge.net/DTD/sodipodi-0.dtd"
   xmlns:inkscape="http://www.inkscape.org/namespaces/inkscape"
   width="200"
   height="200"
   id="svg3074"
   version="1.1"
   inkscape:version="0.48.4 r9939"
   sodipodi:docname="yorsh.svg"
   inkscape:export-filename="/home/sarkian/dev/js/fliplex/lib/yorsh/yorsh.png"
   inkscape:export-xdpi="90"
   inkscape:export-ydpi="90">
  <defs
     id="defs3076" />
  <sodipodi:namedview
     id="base"
     pagecolor="#ffffff"
     bordercolor="#666666"
     borderopacity="1.0"
     inkscape:pageopacity="0.0"
     inkscape:pageshadow="2"
     inkscape:zoom="2.8"
     inkscape:cx="52.349047"
     inkscape:cy="111.00625"
     inkscape:document-units="px"
     inkscape:current-layer="layer1"
     showgrid="false"
     inkscape:window-width="1920"
     inkscape:window-height="1060"
     inkscape:window-x="0"
     inkscape:window-y="20"
     inkscape:window-maximized="0"
     inkscape:snap-object-midpoints="true"
     showguides="true"
     inkscape:guide-bbox="true"
     inkscape:object-nodes="true"
     inkscape:snap-smooth-nodes="true"
     inkscape:object-paths="true">
    <inkscape:grid
       type="xygrid"
       id="grid3917"
       empspacing="2"
       visible="true"
       enabled="true"
       snapvisiblegridlinesonly="true" />
  </sodipodi:namedview>
  <metadata
     id="metadata3079">
    <rdf:RDF>
      <cc:Work
         rdf:about="">
        <dc:format>image/svg+xml</dc:format>
        <dc:type
           rdf:resource="http://purl.org/dc/dcmitype/StillImage" />
        <dc:title></dc:title>
      </cc:Work>
    </rdf:RDF>
  </metadata>
  <g
     inkscape:label="Layer 1"
     inkscape:groupmode="layer"
     id="layer1"
     transform="translate(0,-852.36218)">
    <path
       style="fill:#00e5e5;fill-opacity:1"
       d="m 100,0.84375 -85.875,49.59375 0,99.125 85.875,49.59375 85.875,-49.59375 0,-99.125 z m 0,17.922277 70.33558,40.601238 0,81.265475 L 100,181.23397 29.664419,140.63274 l 0,-81.265475 z"
       id="path3118"
       transform="translate(0,852.36218)"
       inkscape:connector-curvature="0"
       sodipodi:nodetypes="cccccccccccccc" />
    <path
       transform="matrix(0.5,0.8660254,-0.8660254,0.5,0,0)"
       style="fill:#00e5e5;fill-opacity:0"
       d="m 864.76984,289.57855 20,0 0,200 -20,0 z"
       id="rect3925" />
    <path
       sodipodi:type="star"
       style="fill:#00e5e5;fill-opacity:0"
       id="path3930"
       sodipodi:sides="3"
       sodipodi:cx="71.25"
       sodipodi:cy="50.714285"
       sodipodi:r1="14.678745"
       sodipodi:r2="7.3393726"
       sodipodi:arg1="0.93216136"
       sodipodi:arg2="1.9793589"
       inkscape:flatsided="true"
       inkscape:rounded="0"
       inkscape:randomized="0"
       d="M 80,62.500001 56.668272,52.399152 77.081728,37.243707 z"
       transform="translate(0,852.36218)"
       inkscape:transform-center-x="2.915864"
       inkscape:transform-center-y="-0.84243257" />
    <path
       sodipodi:type="inkscape:offset"
       inkscape:radius="-1.4504843"
       inkscape:original="M 45.53125 56.65625 L 35.25 62.59375 L 35.25 73.6875 L 90 105.71875 L 90 169 L 100 174.78125 L 110 169 L 110 105.5625 L 164.6875 74.1875 L 164.75 62.59375 L 155.03125 56.96875 L 99.84375 88.34375 L 45.53125 56.65625 z "
       style="fill:#00e5e5;fill-opacity:1"
       id="path3964"
       d="m 45.53125,58.3125 -8.84375,5.125 0,9.40625 54.03125,31.625 a 1.4506293,1.4506293 0 0 1 0.71875,1.25 l 0,62.4375 8.5625,4.96875 8.5625,-4.96875 0,-62.59375 a 1.4506293,1.4506293 0 0 1 0.71875,-1.25 L 163.25,73.34375 163.3125,63.4375 155.03125,58.625 100.5625,89.59375 a 1.4506293,1.4506293 0 0 1 -1.4375,0 L 45.53125,58.3125 z"
       transform="translate(0,852.36218)" />
    <path
       style="fill:#777777;fill-opacity:0"
       d="m 100,871.12821 -70.335581,40.60124 0,81.26547 L 100,1033.5962 l 70.33558,-40.60128 0,-81.26547 z m -10e-7,8.17546 63.256941,36.51509 0,73.08682 -63.256941,36.51502 -63.256938,-36.51502 0,-73.08682 z"
       id="path3118-8"
       inkscape:connector-curvature="0"
       sodipodi:nodetypes="cccccccccccccc" />
  </g>
</svg>
